<svg width="22" height="21" viewBox="0 0 22 21" fill="none" xmlns="http://www.w3.org/2000/svg">
<path fill-rule="evenodd" clip-rule="evenodd" d="M2.14551 2.00001H1C0.447715 2.00001 0 1.5523 0 1.00001C0 0.447726 0.447715 1.09959e-05 1 1.09959e-05H2.3164C2.32312 1.09959e-05 2.32995 8.37329e-06 2.33688 5.63148e-06C2.43966 -3.45421e-05 2.56544 -8.37753e-05 2.67745 0.00842503C2.80953 0.0184587 2.99314 0.0439741 3.19022 0.132995C3.44972 0.250206 3.67049 0.438856 3.82674 0.676896C3.94541 0.857684 3.99925 1.03507 4.02976 1.16397C4.05563 1.27328 4.0752 1.39752 4.09119 1.49905C4.09227 1.5059 4.09333 1.51265 4.09438 1.51928L4.48607 4.00001L20.0678 4C20.2087 3.99995 20.3716 3.9999 20.513 4.0122C20.6723 4.02605 20.9111 4.06201 21.153 4.20217C21.459 4.37953 21.6926 4.65936 21.8123 4.99223C21.907 5.25528 21.8996 5.49662 21.8848 5.65585C21.8716 5.79716 21.8424 5.9574 21.8171 6.09607L20.4555 13.5852C20.3758 14.0236 20.3063 14.4056 20.2245 14.7197C20.1375 15.054 20.0203 15.3801 19.8117 15.6868C19.4968 16.1499 19.0586 16.5156 18.5467 16.7426C18.2075 16.8929 17.8658 16.9499 17.5213 16.9758C17.1976 17 16.8094 17 16.3637 17H6.5387L6.85449 19H18C18.5523 19 19 19.4477 19 20C19 20.5523 18.5523 21 18 21L6.6631 21C6.56032 21.0001 6.43455 21.0001 6.32255 20.9916C6.19047 20.9816 6.00686 20.956 5.80977 20.867C5.55028 20.7498 5.32951 20.5612 5.17326 20.3231C5.05459 20.1423 5.00075 19.965 4.97024 19.8361C4.94437 19.7267 4.9248 19.6025 4.90881 19.501L2.14551 2.00001ZM6.22292 15H16.3294C16.8192 15 17.1318 14.9994 17.3716 14.9814C17.5989 14.9643 17.6882 14.9355 17.7361 14.9142C17.9068 14.8386 18.0528 14.7167 18.1578 14.5623C18.1873 14.5189 18.2316 14.4362 18.2891 14.2157C18.3497 13.9829 18.4062 13.6755 18.4939 13.1936L19.8018 6.00001H4.80186L6.22292 15Z" fill="white"/>
</svg>
